<svg width="26" height="26" viewBox="0 0 26 26" fill="none" xmlns="http://www.w3.org/2000/svg">
<g clip-path="url(#clip0_0_1499)">
<path d="M16.2471 9.74242C16.2438 13.3478 13.3321 16.2521 9.72289 16.2494C6.151 16.2473 3.24409 13.3146 3.24952 9.71731C3.25495 6.14381 6.18764 3.24158 9.78599 3.24836C13.3341 3.25515 16.2499 6.18589 16.2465 9.74242H16.2471ZM14.622 9.72206C14.6213 7.07096 12.4262 4.87324 9.78056 4.87392C7.07993 4.87392 4.87668 7.04652 4.87465 9.71053C4.87261 12.4343 7.04465 14.6211 9.75478 14.6232C12.4418 14.6252 14.6227 12.4295 14.622 9.72206Z" fill="#002D4B"/>
<path d="M25.2393 21.6595C23.7289 20.1303 22.2035 18.6168 20.6795 17.1012C20.0145 16.4401 19.1161 16.4116 18.3989 17.0238C18.2978 17.11 18.2482 17.1141 18.1573 17.0184C17.9008 16.7489 17.6437 16.4774 17.3661 16.2304C17.2012 16.0838 17.2135 15.9962 17.3451 15.8265C19.2118 13.4245 19.8985 10.7137 19.2661 7.74086C18.158 2.53095 13.267 -0.745948 8.03607 0.1459C4.14255 0.809695 0.979148 3.88433 0.190673 7.75782C0.128246 8.06597 0.137067 8.38972 0 8.68225V10.8155C0.08889 10.8487 0.0536055 10.9309 0.0617481 10.9899C0.274813 12.53 0.802046 13.9512 1.68213 15.2347C2.61649 16.5969 3.80124 17.6482 5.22958 18.3881C5.23026 18.3881 5.23094 18.3887 5.2323 18.3894C6.66879 19.2025 8.37263 19.4917 9.78808 19.4978C9.79487 19.4978 9.80165 19.4984 9.80912 19.4984C9.84237 19.4984 9.87562 19.4978 9.90887 19.4971C10.7136 19.4917 11.4186 19.3946 11.9174 19.2521C11.9486 19.2466 11.9812 19.2385 12.0144 19.2283C13.4455 18.8856 14.7374 18.2448 15.8849 17.3007C16.0009 17.2057 16.066 17.201 16.1732 17.3143C16.4453 17.6041 16.729 17.8838 17.016 18.1586C17.1117 18.2503 17.1069 18.2998 17.0214 18.4009C16.4094 19.1184 16.4392 20.0177 17.0995 20.6821C18.6092 22.2005 20.1238 23.714 21.6362 25.2289C21.9592 25.552 22.3345 25.7841 22.7776 25.907C22.8529 25.928 22.9492 25.9131 22.9995 25.9993H23.8117C23.828 25.9837 23.8429 25.9565 23.8612 25.9538C24.8722 25.778 25.5467 25.1903 25.8602 24.2292C26.1757 23.262 25.9518 22.381 25.2387 21.6588L25.2393 21.6595ZM16.121 14.748C14.867 16.3763 13.2514 17.3469 11.3433 17.7114C8.22267 18.217 6.52765 17.2125 5.62382 16.7618C2.73659 15.0779 1.09857 11.613 1.74184 8.28995C2.58663 3.92369 6.56701 1.05472 10.9545 1.73276C13.9842 2.20109 16.1386 3.91759 17.2684 6.75874C18.3996 9.6026 17.9877 12.3229 16.1203 14.748H16.121ZM24.286 23.8287C24.1265 24.1905 23.8307 24.3568 23.4683 24.3765C23.2051 24.3663 22.9961 24.2814 22.8285 24.1138C21.3248 22.6145 19.8232 21.1125 18.3175 19.6152C18.2177 19.5161 18.2326 19.4645 18.3242 19.3756C18.6757 19.0335 19.0231 18.6867 19.3645 18.3344C19.4595 18.236 19.5151 18.2184 19.6223 18.3263C21.107 19.8208 22.5984 21.3086 24.0831 22.8032C24.3715 23.093 24.4556 23.4432 24.286 23.8274V23.8287Z" fill="#002D4B"/>
</g>
<defs>
<clipPath id="clip0_0_1499">
<rect width="26" height="26" fill="white"/>
</clipPath>
</defs>
</svg>
