<svg width="14" height="14" viewBox="0 0 14 14" fill="none" xmlns="http://www.w3.org/2000/svg">
<g clip-path="url(#clip0_0_1701)">
<path fill-rule="evenodd" clip-rule="evenodd" d="M4.35456 0.621836C5.03881 0.590336 5.25698 0.583336 6.99998 0.583336C8.74298 0.583336 8.96115 0.590919 9.64481 0.621836C10.3285 0.652753 10.7951 0.761836 11.2035 0.919919C11.6311 1.0815 12.019 1.33409 12.3398 1.66075C12.6665 1.981 12.9185 2.36834 13.0795 2.7965C13.2381 3.20484 13.3466 3.6715 13.3781 4.354C13.4096 5.03942 13.4166 5.25759 13.4166 7C13.4166 8.743 13.4091 8.96117 13.3781 9.64542C13.3472 10.3279 13.2381 10.7946 13.0795 11.2029C12.9185 11.6311 12.6661 12.0191 12.3398 12.3398C12.019 12.6665 11.6311 12.9185 11.2035 13.0795C10.7951 13.2382 10.3285 13.3467 9.64598 13.3782C8.96115 13.4097 8.74298 13.4167 6.99998 13.4167C5.25698 13.4167 5.03881 13.4091 4.35456 13.3782C3.67206 13.3473 3.2054 13.2382 2.79706 13.0795C2.36885 12.9185 1.98087 12.6661 1.66015 12.3398C1.3337 12.0194 1.08108 11.6316 0.919896 11.2035C0.761813 10.7952 0.653313 10.3285 0.621813 9.646C0.590313 8.96059 0.583313 8.74242 0.583313 7C0.583313 5.257 0.590896 5.03884 0.621813 4.35517C0.65273 3.6715 0.761813 3.20484 0.919896 2.7965C1.08132 2.36838 1.33413 1.9806 1.66073 1.66017C1.981 1.33379 2.36859 1.08118 2.79648 0.919919C3.20481 0.761836 3.67148 0.653336 4.35398 0.621836H4.35456ZM9.5929 1.77684C8.91623 1.74592 8.71323 1.7395 6.99998 1.7395C5.28673 1.7395 5.08373 1.74592 4.40706 1.77684C3.78115 1.80542 3.44165 1.90984 3.21531 1.99792C2.91606 2.11459 2.70198 2.25284 2.4774 2.47742C2.26451 2.68453 2.10067 2.93667 1.9979 3.21534C1.90981 3.44167 1.8054 3.78117 1.77681 4.40709C1.7459 5.08375 1.73948 5.28675 1.73948 7C1.73948 8.71325 1.7459 8.91625 1.77681 9.59292C1.8054 10.2188 1.90981 10.5583 1.9979 10.7847C2.10056 11.0629 2.26448 11.3155 2.4774 11.5226C2.68448 11.7355 2.93706 11.8994 3.21531 12.0021C3.44165 12.0902 3.78115 12.1946 4.40706 12.2232C5.08373 12.2541 5.28615 12.2605 6.99998 12.2605C8.71381 12.2605 8.91623 12.2541 9.5929 12.2232C10.2188 12.1946 10.5583 12.0902 10.7846 12.0021C11.0839 11.8854 11.298 11.7472 11.5226 11.5226C11.7355 11.3155 11.8994 11.0629 12.0021 10.7847C12.0901 10.5583 12.1946 10.2188 12.2231 9.59292C12.2541 8.91625 12.2605 8.71325 12.2605 7C12.2605 5.28675 12.2541 5.08375 12.2231 4.40709C12.1946 3.78117 12.0901 3.44167 12.0021 3.21534C11.8854 2.91609 11.7471 2.702 11.5226 2.47742C11.3154 2.26454 11.0633 2.10071 10.7846 1.99792C10.5583 1.90984 10.2188 1.80542 9.5929 1.77684ZM6.1804 8.97809C6.63811 9.16862 7.14778 9.19434 7.62235 9.05084C8.09693 8.90734 8.50696 8.60354 8.78242 8.19131C9.05788 7.77908 9.18168 7.28401 9.13267 6.79065C9.08367 6.29728 8.8649 5.83624 8.51373 5.48625C8.28987 5.26253 8.01919 5.09123 7.72117 4.98467C7.42316 4.87812 7.10523 4.83896 6.79027 4.87003C6.47531 4.90109 6.17115 5.00161 5.8997 5.16433C5.62824 5.32705 5.39625 5.54794 5.22041 5.81108C5.04457 6.07423 4.92926 6.37309 4.88278 6.68615C4.8363 6.9992 4.85982 7.31867 4.95163 7.62155C5.04344 7.92443 5.20126 8.20319 5.41373 8.43776C5.62621 8.67232 5.88804 8.85686 6.1804 8.97809ZM4.66781 4.66784C4.97408 4.36157 5.33767 4.11863 5.73782 3.95288C6.13797 3.78713 6.56686 3.70182 6.99998 3.70182C7.4331 3.70182 7.86199 3.78713 8.26214 3.95288C8.66229 4.11863 9.02588 4.36157 9.33215 4.66784C9.63841 4.9741 9.88135 5.33769 10.0471 5.73784C10.2129 6.138 10.2982 6.56688 10.2982 7C10.2982 7.43313 10.2129 7.86201 10.0471 8.26216C9.88135 8.66232 9.63841 9.0259 9.33215 9.33217C8.71362 9.9507 7.87471 10.2982 6.99998 10.2982C6.12525 10.2982 5.28634 9.9507 4.66781 9.33217C4.04928 8.71364 3.7018 7.87473 3.7018 7C3.7018 6.12527 4.04928 5.28636 4.66781 4.66784ZM11.0296 4.193C11.1055 4.12141 11.1663 4.03532 11.2083 3.93982C11.2503 3.84432 11.2728 3.74137 11.2743 3.63704C11.2758 3.53272 11.2564 3.42916 11.2172 3.33247C11.178 3.23579 11.1197 3.14797 11.046 3.07419C10.9722 3.00042 10.8844 2.94219 10.7877 2.90297C10.691 2.86375 10.5874 2.84432 10.4831 2.84584C10.3788 2.84736 10.2758 2.8698 10.1803 2.91183C10.0848 2.95385 9.99874 3.01461 9.92715 3.0905C9.78791 3.2381 9.71168 3.43416 9.71464 3.63704C9.7176 3.83993 9.79951 4.03368 9.94299 4.17716C10.0865 4.32064 10.2802 4.40255 10.4831 4.40551C10.686 4.40847 10.882 4.33224 11.0296 4.193Z" fill="#002D4B"/>
</g>
<defs>
<clipPath id="clip0_0_1701">
<rect width="14" height="14" fill="white"/>
</clipPath>
</defs>
</svg>
