<svg width="14" height="14" viewBox="0 0 14 14" fill="none" xmlns="http://www.w3.org/2000/svg">
<path fill-rule="evenodd" clip-rule="evenodd" d="M5.50027 5.23191H7.66677V6.31108C7.97885 5.69041 8.77919 5.13275 9.98144 5.13275C12.2862 5.13275 12.8334 6.36825 12.8334 8.63508V12.8333H10.5V9.15133C10.5 7.86041 10.1879 7.13241 9.39344 7.13241C8.29152 7.13241 7.8336 7.917 7.8336 9.15075V12.8333H5.50027V5.23191ZM1.49919 12.7342H3.83252V5.13275H1.49919V12.7342ZM4.16677 2.65416C4.16686 2.84974 4.12807 3.04338 4.05266 3.22384C3.97726 3.4043 3.86673 3.56796 3.72752 3.70533C3.44542 3.9857 3.06358 4.14263 2.66585 4.14166C2.26883 4.1414 1.88787 3.98486 1.60535 3.70591C1.46664 3.56808 1.3565 3.40423 1.28122 3.22375C1.20595 3.04327 1.16702 2.84971 1.16669 2.65416C1.16669 2.25925 1.32419 1.88125 1.60594 1.60241C1.8882 1.32309 2.26933 1.16649 2.66644 1.16666C3.06427 1.16666 3.44577 1.32358 3.72752 1.60241C4.00869 1.88125 4.16677 2.25925 4.16677 2.65416Z" fill="#002D4B"/>
</svg>
